<svg id="Layer_1" data-name="Layer 1" xmlns="http://www.w3.org/2000/svg" viewBox="0 0 36.53 36.53"><defs><style>.cls-1{fill:#c10516;}</style></defs><path class="cls-1" d="M.28,18.26H.56A17.72,17.72,0,1,1,5.75,30.78,17.62,17.62,0,0,1,.56,18.26H0A18.27,18.27,0,1,0,18.26,0,18.27,18.27,0,0,0,0,18.26Z"/><path class="cls-1" d="M10.37,20.24V15.16a7.89,7.89,0,0,1,15.78,0v5.08a7.89,7.89,0,0,1-7.89,7.89v.56a8.46,8.46,0,0,0,8.46-8.45V15.16a8.46,8.46,0,0,0-16.91,0v5.08Z"/><path class="cls-1" d="M11.74,15.18l-.33,0a4.65,4.65,0,0,0-4.65,4.65v.85a4.65,4.65,0,0,0,4.65,4.65l.33,0Z"/><path class="cls-1" d="M24.79,15.18l.33,0a4.65,4.65,0,0,1,4.65,4.65v.85a4.65,4.65,0,0,1-4.65,4.65l-.33,0Z"/><path class="cls-1" d="M21.08,28.27a1.26,1.26,0,0,1-1.27,1.26H16.72a1.27,1.27,0,1,1,0-2.53h3.09a1.27,1.27,0,0,1,1.27,1.27"/></svg>